<?xml version="1.0" encoding="UTF-8" ?>
<!DOCTYPE svg PUBLIC "-//W3C//DTD SVG 1.1//EN" "http://www.w3.org/Graphics/SVG/1.1/DTD/svg11.dtd">
<svg width="273pt" height="219pt" viewBox="0 0 273 219" version="1.1" xmlns="http://www.w3.org/2000/svg">
<g id="#313131ff">
</g>
<g id="#ff8000ff">
<path fill="#ff8000" opacity="1.00" d=" M 158.49 36.54 C 160.87 34.32 163.34 32.20 165.91 30.20 C 168.23 32.22 170.61 34.18 173.05 36.07 C 162.96 46.10 151.87 55.13 140.17 63.21 C 135.45 66.27 130.84 69.59 125.71 71.91 C 122.77 70.50 120.75 67.78 118.39 65.61 C 133.05 57.86 146.14 47.53 158.49 36.54 Z" />
<path fill="#ff8000" opacity="1.00" d=" M 200.62 30.87 C 204.16 32.33 207.32 34.52 210.48 36.65 C 223.43 45.16 235.63 54.84 246.64 65.76 C 244.42 68.10 242.21 70.45 240.06 72.85 C 226.70 59.24 211.06 48.16 194.96 38.05 C 196.72 35.56 198.65 33.19 200.62 30.87 Z" />
<path fill="#ff8000" opacity="1.00" d=" M 182.41 56.91 C 185.92 57.48 189.41 58.24 192.82 59.27 C 192.14 60.88 189.22 62.54 190.65 64.44 C 207.44 84.77 231.50 97.39 256.12 105.71 C 254.52 108.43 252.88 111.11 251.19 113.77 C 235.24 108.00 219.12 101.80 205.28 91.78 C 196.90 85.76 189.59 78.37 183.24 70.26 C 164.42 89.25 140.73 102.72 115.78 111.91 C 113.82 109.38 112.00 106.76 110.25 104.09 C 137.77 94.86 163.83 79.55 182.41 56.91 Z" />
<path fill="#ff8000" opacity="1.00" d=" M 133.75 115.05 C 133.96 113.65 133.21 111.56 134.97 110.95 C 136.65 110.70 138.35 110.74 140.05 110.73 C 170.96 110.87 201.87 110.62 232.78 110.85 C 232.70 132.32 233.13 153.81 232.56 175.27 C 229.58 175.30 226.59 175.31 223.61 175.28 C 223.28 171.45 223.29 167.60 223.39 163.77 C 196.81 163.72 170.23 163.75 143.65 163.76 C 143.63 167.38 143.63 171.00 143.64 174.62 C 140.52 174.63 137.40 174.63 134.28 174.66 C 133.80 171.46 133.70 168.21 133.85 164.98 C 133.76 148.34 133.83 131.69 133.75 115.05 M 143.62 120.27 C 143.66 131.69 143.59 143.11 143.66 154.54 C 170.23 154.59 196.80 154.48 223.37 154.59 C 223.35 143.15 223.30 131.71 223.40 120.27 C 196.81 120.34 170.22 120.35 143.62 120.27 Z" />
</g>
<g id="#00dc46ff">
<path fill="#00dc46" opacity="1.00" d=" M 60.44 54.42 C 68.01 48.22 78.33 46.28 87.89 46.79 C 89.19 50.18 90.51 53.56 91.73 56.99 C 84.86 57.36 77.71 58.03 71.60 61.47 C 67.82 63.59 64.56 67.46 64.64 71.99 C 64.80 77.10 67.66 81.57 70.26 85.78 C 75.78 94.09 81.97 102.17 85.27 111.69 C 87.64 118.51 89.19 125.95 87.60 133.13 C 85.63 146.38 75.52 157.16 63.71 162.72 C 46.85 170.56 27.26 170.99 9.50 166.15 C 10.40 162.90 11.31 159.66 12.17 156.41 C 26.35 159.73 41.66 159.75 55.24 154.02 C 63.86 150.52 71.75 144.10 75.12 135.22 C 78.06 127.04 76.90 117.72 72.91 110.09 C 67.57 99.59 58.57 91.20 54.70 79.91 C 51.68 71.30 53.08 60.46 60.44 54.42 Z" />
</g>
</svg>
